<?xml version="1.0" encoding="UTF-8"?>
<!DOCTYPE svg PUBLIC "-//W3C//DTD SVG 1.1//EN" "http://www.w3.org/Graphics/SVG/1.1/DTD/svg11.dtd">
<svg xmlns="http://www.w3.org/2000/svg" version="1.1" width="64px" height="64px" style="shape-rendering:geometricPrecision; text-rendering:geometricPrecision; image-rendering:optimizeQuality; fill-rule:evenodd; clip-rule:evenodd" xmlns:xlink="http://www.w3.org/1999/xlink">
<g><path style="opacity:0.997" fill="#101011" d="M -0.5,-0.5 C 20.8333,-0.5 42.1667,-0.5 63.5,-0.5C 63.5,15.8333 63.5,32.1667 63.5,48.5C 58.1667,53.1667 53.1667,58.1667 48.5,63.5C 32.1667,63.5 15.8333,63.5 -0.5,63.5C -0.5,42.1667 -0.5,20.8333 -0.5,-0.5 Z"/></g>
<g><path style="opacity:1" fill="#09313f" d="M 18.5,21.5 C 26.5069,21.3336 34.5069,21.5003 42.5,22C 43.5171,23.0495 43.6838,24.2161 43,25.5C 42.0475,23.4078 40.7141,23.0745 39,24.5C 38.6667,23.8333 38.3333,23.1667 38,22.5C 31.4254,23.2686 24.9254,23.6019 18.5,23.5C 18.5,22.8333 18.5,22.1667 18.5,21.5 Z"/></g>
<g><path style="opacity:1" fill="#0a485a" d="M 18.5,21.5 C 18.5,22.1667 18.5,22.8333 18.5,23.5C 20.7043,24.5051 23.7043,24.8384 27.5,24.5C 27.1005,27.7609 28.2671,28.4276 31,26.5C 32.6268,26.6251 34.1268,27.1251 35.5,28C 34.9558,28.7172 34.2891,29.2172 33.5,29.5C 28.9016,28.8967 24.5683,27.5634 20.5,25.5C 19.5119,30.6405 19.1786,35.9738 19.5,41.5C 19.3284,42.4916 19.6618,43.1583 20.5,43.5C 20.5,43.8333 20.5,44.1667 20.5,44.5C 18.7149,39.9325 17.8816,34.9325 18,29.5C 17.5,28.3333 16.6667,27.5 15.5,27C 19.1851,26.0855 18.8518,25.4189 14.5,25C 15.3567,24.3109 16.0233,23.4776 16.5,22.5C 14.497,20.8669 13.1637,18.8669 12.5,16.5C 25.5043,16.3334 38.5043,16.5001 51.5,17C 51,17.5 50.5,18 50,18.5C 38.2427,17.3459 26.4093,17.1793 14.5,18C 15.7051,19.3756 17.0384,20.5423 18.5,21.5 Z"/></g>
<g><path style="opacity:1" fill="#0e4157" d="M 11.5,24.5 C 12.2344,25.8775 12.9011,27.3775 13.5,29C 12.365,29.7494 11.365,29.5827 10.5,28.5C 11.2458,27.2638 11.5792,25.9305 11.5,24.5 Z"/></g>
<g><path style="opacity:1" fill="#081825" d="M 20.5,25.5 C 20.3347,29.1817 20.5014,32.8484 21,36.5C 21.4983,33.1832 21.665,29.8499 21.5,26.5C 23.8489,26.4583 25.1822,27.6249 25.5,30C 24.7009,34.642 22.7009,38.4753 19.5,41.5C 19.1786,35.9738 19.5119,30.6405 20.5,25.5 Z"/></g>
<g><path style="opacity:1" fill="#020508" d="M 20.5,25.5 C 24.5683,27.5634 28.9016,28.8967 33.5,29.5C 31.5082,31.5638 29.1748,32.8971 26.5,33.5C 25.5526,37.3835 23.5526,40.7168 20.5,43.5C 19.6618,43.1583 19.3284,42.4916 19.5,41.5C 22.7009,38.4753 24.7009,34.642 25.5,30C 25.1822,27.6249 23.8489,26.4583 21.5,26.5C 21.665,29.8499 21.4983,33.1832 21,36.5C 20.5014,32.8484 20.3347,29.1817 20.5,25.5 Z"/></g>
<g><path style="opacity:1" fill="#064a5d" d="M 36.5,33.5 C 34.8794,30.9609 35.546,29.7942 38.5,30C 37.9152,31.3024 37.2485,32.469 36.5,33.5 Z"/></g>
<g><path style="opacity:1" fill="#074f64" d="M 33.5,29.5 C 32.2498,31.9324 30.7498,34.2657 29,36.5C 28.7645,34.8807 27.9311,33.8807 26.5,33.5C 29.1748,32.8971 31.5082,31.5638 33.5,29.5 Z"/></g>
<g><path style="opacity:1" fill="#0a6376" d="M 36.5,33.5 C 35.6136,34.7759 34.6136,34.7759 33.5,33.5C 34.4246,32.4376 35.4246,32.4376 36.5,33.5 Z"/></g>
<g><path style="opacity:1" fill="#0b475a" d="M 39.5,42.5 C 37.8333,43.8333 36.1667,43.8333 34.5,42.5C 34.5,41.1667 34.5,39.8333 34.5,38.5C 32.1432,38.6633 29.8098,38.4966 27.5,38C 30.146,37.5026 32.8127,37.3359 35.5,37.5C 35.5,38.8333 35.5,40.1667 35.5,41.5C 36.675,41.719 37.675,41.3857 38.5,40.5C 39.6399,38.5266 40.9733,36.6933 42.5,35C 41.4216,34.3261 40.7549,33.3261 40.5,32C 42.1599,24.671 42.4932,24.671 41.5,32C 42.1667,33 42.8333,34 43.5,35C 41.9249,37.3985 40.5916,39.8985 39.5,42.5 Z"/></g>
<g><path style="opacity:1" fill="#10252d" d="M 26.5,33.5 C 26.7394,35.4672 26.4061,37.3005 25.5,39C 26.5156,39.5194 27.1822,40.3527 27.5,41.5C 26.6282,43.0542 26.6282,44.3876 27.5,45.5C 25.7078,46.3091 23.7078,46.8091 21.5,47C 23.5202,48.2166 25.5202,48.3833 27.5,47.5C 28.463,47.9698 28.463,48.6365 27.5,49.5C 24.1733,50.2189 20.84,50.3855 17.5,50C 16.2889,48.8869 16.2889,47.7202 17.5,46.5C 18.2739,45.2888 19.1072,45.2888 20,46.5C 20.4643,45.9056 20.631,45.2389 20.5,44.5C 20.5,44.1667 20.5,43.8333 20.5,43.5C 23.5526,40.7168 25.5526,37.3835 26.5,33.5 Z"/></g>
<g><path style="opacity:1" fill="#0c2236" d="M 34.5,42.5 C 36.1667,43.8333 37.8333,43.8333 39.5,42.5C 41.5273,42.3379 43.5273,42.5045 45.5,43C 45.7205,44.7985 46.0539,46.6318 46.5,48.5C 44.9928,49.7388 43.8261,49.4054 43,47.5C 41.1644,49.6044 38.9977,49.9377 36.5,48.5C 37.2624,48.0894 38.2624,47.9227 39.5,48C 38.646,46.9783 37.646,46.1449 36.5,45.5C 35.16,46.8665 33.8267,48.1999 32.5,49.5C 31.791,48.596 30.791,48.2627 29.5,48.5C 29.5,47.1667 29.5,45.8333 29.5,44.5C 30.5521,42.744 32.2188,42.0773 34.5,42.5 Z"/></g>
<g><path style="opacity:1" fill="#0a4257" d="M 29.5,44.5 C 29.5,45.8333 29.5,47.1667 29.5,48.5C 30.791,48.2627 31.791,48.596 32.5,49.5C 30.8333,49.5 29.1667,49.5 27.5,49.5C 28.463,48.6365 28.463,47.9698 27.5,47.5C 25.5202,48.3833 23.5202,48.2166 21.5,47C 23.7078,46.8091 25.7078,46.3091 27.5,45.5C 27.8417,44.6618 28.5084,44.3284 29.5,44.5 Z"/></g>
</svg>
