<?xml version="1.0" encoding="UTF-8"?>
<!DOCTYPE svg PUBLIC "-//W3C//DTD SVG 1.1//EN" "http://www.w3.org/Graphics/SVG/1.1/DTD/svg11.dtd">
<svg xmlns="http://www.w3.org/2000/svg" version="1.1" width="45px" height="29px" style="shape-rendering:geometricPrecision; text-rendering:geometricPrecision; image-rendering:optimizeQuality; fill-rule:evenodd; clip-rule:evenodd" xmlns:xlink="http://www.w3.org/1999/xlink">
<g><path style="opacity:0.091" fill="#02c6fb" d="M 37.5,2.5 C 28.3483,1.50644 19.015,1.17311 9.5,1.5C 8.83333,1.5 8.5,1.83333 8.5,2.5C 7.95691,2.44001 7.62358,2.10667 7.5,1.5C 17.8333,0.166667 28.1667,0.166667 38.5,1.5C 38.3764,2.10667 38.0431,2.44001 37.5,2.5 Z"/></g>
<g><path style="opacity:0.898" fill="#023040" d="M 9.5,1.5 C 19.015,1.17311 28.3483,1.50644 37.5,2.5C 37.5,3.16667 37.1667,3.5 36.5,3.5C 27.8333,2.16667 19.1667,2.16667 10.5,3.5C 9.66175,3.15829 9.32842,2.49162 9.5,1.5 Z"/></g>
<g><path style="opacity:1" fill="#070b0f" d="M 10.5,3.5 C 19.1667,2.16667 27.8333,2.16667 36.5,3.5C 36.1667,4.5 35.5,5.16667 34.5,5.5C 27.1591,5.66632 19.8258,5.49966 12.5,5C 11.9558,4.28281 11.2891,3.78281 10.5,3.5 Z"/></g>
<g><path style="opacity:1" fill="#112129" d="M 31.5,9.5 C 30.3006,12.5528 30.3006,15.2195 31.5,17.5C 29.0582,17.8808 28.3915,17.2141 29.5,15.5C 28.1477,12.2729 26.4811,11.9395 24.5,14.5C 28.3884,15.8125 28.2217,16.8125 24,17.5C 22.6244,17.3158 21.7911,16.6491 21.5,15.5C 20.791,14.596 19.791,14.2627 18.5,14.5C 18.5,14.1667 18.5,13.8333 18.5,13.5C 20.8583,13.7475 22.8583,13.0808 24.5,11.5C 25.5,11.1667 26.1667,10.5 26.5,9.5C 26.8333,8.5 27.5,7.83333 28.5,7.5C 30.5983,6.0857 31.5983,6.75236 31.5,9.5 Z"/></g>
<g><path style="opacity:0.651" fill="#037593" d="M 9.5,1.5 C 9.32842,2.49162 9.66175,3.15829 10.5,3.5C 11.2891,3.78281 11.9558,4.28281 12.5,5C 19.8258,5.49966 27.1591,5.66632 34.5,5.5C 33.3412,6.74029 32.3412,8.07363 31.5,9.5C 31.5983,6.75236 30.5983,6.0857 28.5,7.5C 25.3601,6.35916 22.0267,6.1925 18.5,7C 20.6525,9.16506 23.3192,9.9984 26.5,9.5C 26.1667,10.5 25.5,11.1667 24.5,11.5C 22.7354,10.5386 20.7354,10.2053 18.5,10.5C 17.8166,8.82351 16.4832,8.15684 14.5,8.5C 13.0222,8.76202 11.6888,8.42869 10.5,7.5C 11.8549,6.32471 11.6883,5.32471 10,4.5C 9.72158,5.4158 9.22158,6.08247 8.5,6.5C 8.5,5.16667 8.5,3.83333 8.5,2.5C 8.5,1.83333 8.83333,1.5 9.5,1.5 Z M 28.5,7.5 C 27.5,7.83333 26.8333,8.5 26.5,9.5C 23.3192,9.9984 20.6525,9.16506 18.5,7C 22.0267,6.1925 25.3601,6.35916 28.5,7.5 Z"/></g>
<g><path style="opacity:1" fill="#071622" d="M 14.5,18.5 C 14.5,17.8333 14.5,17.1667 14.5,16.5C 15.1653,14.3021 15.8319,11.9688 16.5,9.5C 17.6733,11.9791 17.6733,14.4791 16.5,17C 16.1639,18.0299 15.4972,18.5299 14.5,18.5 Z"/></g>
<g><path style="opacity:1" fill="#010304" d="M 18.5,10.5 C 20.7354,10.2053 22.7354,10.5386 24.5,11.5C 22.8583,13.0808 20.8583,13.7475 18.5,13.5C 18.5,12.5 18.5,11.5 18.5,10.5 Z"/></g>
<g><path style="opacity:0.141" fill="#0c9fd8" d="M 8.5,6.5 C 8.66997,7.82207 8.33663,8.98873 7.5,10C 8.09442,10.4643 8.76109,10.631 9.5,10.5C 7.97983,12.5292 6.97983,12.5292 6.5,10.5C 6.66821,8.82946 7.33487,7.49612 8.5,6.5 Z"/></g>
<g><path style="opacity:0.973" fill="#0a2734" d="M 14.5,8.5 C 14.5,11.1667 14.5,13.8333 14.5,16.5C 14.5,17.1667 14.5,17.8333 14.5,18.5C 14.5,19.8333 15.1667,20.5 16.5,20.5C 16.5,20.8333 16.5,21.1667 16.5,21.5C 15.8333,21.5 15.5,21.8333 15.5,22.5C 15.1667,22.5 14.8333,22.5 14.5,22.5C 13.6762,18.6877 13.1762,14.6877 13,10.5C 11.7083,9.20891 10.5417,9.20891 9.5,10.5C 8.76109,10.631 8.09442,10.4643 7.5,10C 8.33663,8.98873 8.66997,7.82207 8.5,6.5C 9.22158,6.08247 9.72158,5.4158 10,4.5C 11.6883,5.32471 11.8549,6.32471 10.5,7.5C 11.6888,8.42869 13.0222,8.76202 14.5,8.5 Z"/></g>
<g><path style="opacity:0.152" fill="#02b1e0" d="M 9.5,10.5 C 10.5417,9.20891 11.7083,9.20891 13,10.5C 13.1762,14.6877 13.6762,18.6877 14.5,22.5C 14.5,22.8333 14.5,23.1667 14.5,23.5C 13.1667,23.8333 13.1667,24.1667 14.5,24.5C 13.4489,25.2223 12.7822,26.2223 12.5,27.5C 10.0268,27.0527 9.86011,26.0527 12,24.5C 12.6667,20.1667 12.6667,15.8333 12,11.5C 11.3292,10.7476 10.4959,10.4142 9.5,10.5 Z"/></g>
<g><path style="opacity:1" fill="#03060c" d="M 14.5,8.5 C 16.4832,8.15684 17.8166,8.82351 18.5,10.5C 18.5,11.5 18.5,12.5 18.5,13.5C 18.5,13.8333 18.5,14.1667 18.5,14.5C 18.5,15.8333 18.5,17.1667 18.5,18.5C 17.5,18.8333 16.8333,19.5 16.5,20.5C 15.1667,20.5 14.5,19.8333 14.5,18.5C 15.4972,18.5299 16.1639,18.0299 16.5,17C 17.6733,14.4791 17.6733,11.9791 16.5,9.5C 15.8319,11.9688 15.1653,14.3021 14.5,16.5C 14.5,13.8333 14.5,11.1667 14.5,8.5 Z"/></g>
<g><path style="opacity:1" fill="#133c4c" d="M 31.5,17.5 C 30.4489,18.2223 29.7822,19.2223 29.5,20.5C 28.609,21.1098 27.609,21.4431 26.5,21.5C 26.1667,21.5 25.8333,21.5 25.5,21.5C 24.4019,20.603 24.4019,19.7697 25.5,19C 24.2068,18.51 22.8734,18.3433 21.5,18.5C 20.8333,18.5 20.5,18.1667 20.5,17.5C 20.5,16.8333 20.5,16.1667 20.5,15.5C 20.8333,15.5 21.1667,15.5 21.5,15.5C 21.7911,16.6491 22.6244,17.3158 24,17.5C 28.2217,16.8125 28.3884,15.8125 24.5,14.5C 26.4811,11.9395 28.1477,12.2729 29.5,15.5C 28.3915,17.2141 29.0582,17.8808 31.5,17.5 Z"/></g>
<g><path style="opacity:0.118" fill="#04b1dc" d="M 18.5,14.5 C 19.791,14.2627 20.791,14.596 21.5,15.5C 21.1667,15.5 20.8333,15.5 20.5,15.5C 19.1667,16.1667 19.1667,16.8333 20.5,17.5C 20.5,18.1667 20.8333,18.5 21.5,18.5C 21.1583,19.3382 20.4916,19.6716 19.5,19.5C 19.5,18.8333 19.1667,18.5 18.5,18.5C 18.5,17.1667 18.5,15.8333 18.5,14.5 Z"/></g>
<g><path style="opacity:1" fill="#0d1b22" d="M 17.5,20.5 C 18.4345,21.5676 18.7678,22.901 18.5,24.5C 16.3364,24.7215 14.6697,25.7215 13.5,27.5C 13.1667,27.5 12.8333,27.5 12.5,27.5C 12.7822,26.2223 13.4489,25.2223 14.5,24.5C 14.5,24.1667 14.5,23.8333 14.5,23.5C 15.1667,23.5 15.5,23.1667 15.5,22.5C 16.1667,22.5 16.5,22.1667 16.5,21.5C 17.1667,21.5 17.5,21.1667 17.5,20.5 Z"/></g>
<g><path style="opacity:0.396" fill="#056dbd" d="M 29.5,20.5 C 31.1667,21.1667 32.8333,21.8333 34.5,22.5C 32.1432,22.3367 29.8098,22.5034 27.5,23C 28.6405,23.7412 28.6405,24.5745 27.5,25.5C 28.325,26.3857 29.325,26.719 30.5,26.5C 29.1667,27.8333 27.8333,27.8333 26.5,26.5C 26.5674,25.0413 26.2341,23.7079 25.5,22.5C 26.1667,22.5 26.5,22.1667 26.5,21.5C 27.609,21.4431 28.609,21.1098 29.5,20.5 Z"/></g>
<g><path style="opacity:0.882" fill="#083254" d="M 34.5,22.5 C 34.5,23.1667 34.5,23.8333 34.5,24.5C 33.8333,25.1667 33.1667,25.8333 32.5,26.5C 31.8333,26.5 31.1667,26.5 30.5,26.5C 29.325,26.719 28.325,26.3857 27.5,25.5C 28.6405,24.5745 28.6405,23.7412 27.5,23C 29.8098,22.5034 32.1432,22.3367 34.5,22.5 Z"/></g>
<g><path style="opacity:0.898" fill="#0a3641" d="M 18.5,24.5 C 19.1667,25.1667 19.8333,25.8333 20.5,26.5C 19.8333,26.5 19.5,26.8333 19.5,27.5C 19.5,27.8333 19.5,28.1667 19.5,28.5C 18.8333,28.5 18.1667,28.5 17.5,28.5C 17.1667,27.1667 16.8333,27.1667 16.5,28.5C 16.1667,28.5 15.8333,28.5 15.5,28.5C 15.1583,27.6618 14.4916,27.3284 13.5,27.5C 14.6697,25.7215 16.3364,24.7215 18.5,24.5 Z"/></g>
<g><path style="opacity:0.902" fill="#0d5680" d="M 18.5,18.5 C 19.1667,18.5 19.5,18.8333 19.5,19.5C 19.3433,20.8734 19.51,22.2068 20,23.5C 21.4007,21.8078 23.2341,21.1412 25.5,21.5C 25.5,21.8333 25.5,22.1667 25.5,22.5C 26.2341,23.7079 26.5674,25.0413 26.5,26.5C 25.8333,26.5 25.1667,26.5 24.5,26.5C 24.1667,22.5 23.8333,22.5 23.5,26.5C 22.5,26.5 21.5,26.5 20.5,26.5C 19.8333,25.8333 19.1667,25.1667 18.5,24.5C 18.7678,22.901 18.4345,21.5676 17.5,20.5C 17.1667,20.5 16.8333,20.5 16.5,20.5C 16.8333,19.5 17.5,18.8333 18.5,18.5 Z"/></g>
<g><path style="opacity:0.141" fill="#098ae7" d="M 24.5,26.5 C 23.0813,27.4511 21.4147,27.7845 19.5,27.5C 19.5,26.8333 19.8333,26.5 20.5,26.5C 21.5,26.5 22.5,26.5 23.5,26.5C 23.8333,22.5 24.1667,22.5 24.5,26.5 Z"/></g>
<g><path style="opacity:0.184" fill="#0485e5" d="M 34.5,24.5 C 34.719,25.675 34.3857,26.675 33.5,27.5C 32.8933,27.3764 32.56,27.0431 32.5,26.5C 33.1667,25.8333 33.8333,25.1667 34.5,24.5 Z"/></g>
</svg>
