<?xml version="1.0" standalone="no"?>
<!DOCTYPE svg PUBLIC "-//W3C//DTD SVG 20010904//EN"
 "http://www.w3.org/TR/2001/REC-SVG-20010904/DTD/svg10.dtd">
<svg version="1.0" xmlns="http://www.w3.org/2000/svg"
 width="750.000000pt" height="137.000000pt" viewBox="0 0 750.000000 137.000000"
 preserveAspectRatio="xMidYMid meet">

<g transform="translate(0.000000,137.000000) scale(0.100000,-0.100000)"
fill="#000000" stroke="none">
<path d="M26 893 c-4 -109 -11 -252 -16 -318 -4 -66 -5 -124 -1 -128 4 -4 52
-6 107 -5 l99 3 6 215 c3 118 10 263 14 323 l7 107 -104 0 -105 0 -7 -197z"/>
<path d="M1546 863 c-4 -126 -11 -268 -16 -318 -4 -49 -5 -94 -1 -98 4 -4 52
-6 107 -5 l99 3 3 128 3 127 124 0 125 0 0 70 0 70 -120 0 -120 0 0 55 0 55
150 0 150 0 0 70 0 70 -248 0 -249 0 -7 -227z"/>
<path d="M2166 893 c-4 -109 -11 -252 -16 -318 -4 -66 -5 -124 -1 -128 4 -4
52 -6 107 -5 l99 3 6 215 c3 118 10 263 14 323 l7 107 -104 0 -105 0 -7 -197z"/>
<path d="M2530 1003 c0 -81 -10 -263 -26 -475 l-7 -88 247 0 c189 0 248 3 251
13 2 6 6 41 10 76 l6 64 -96 -6 c-53 -3 -119 -3 -148 0 l-52 5 6 127 c4 69 10
181 14 249 l7 122 -106 0 -106 0 0 -87z"/>
<path d="M3125 1078 c-2 -7 -6 -114 -9 -238 -3 -124 -9 -264 -12 -312 l-7 -88
105 0 104 0 13 293 c7 160 15 307 18 325 l5 32 -106 0 c-77 0 -108 -4 -111
-12z"/>
<path d="M3480 978 c0 -94 -12 -361 -22 -498 l-3 -35 95 0 95 0 6 180 c4 99 7
213 8 253 l1 72 63 0 c72 0 87 -10 87 -57 0 -48 -29 -73 -86 -73 -43 0 -46 -2
-40 -22 3 -13 9 -40 12 -61 8 -47 36 -61 103 -51 106 15 172 66 197 152 30
101 -3 188 -86 230 -41 21 -57 22 -237 22 l-193 0 0 -112z"/>
<path d="M4295 1042 c-16 -26 -69 -99 -117 -163 l-86 -117 -4 -76 -3 -76 134
0 134 0 -7 -85 -7 -86 98 3 98 3 3 83 3 82 54 0 55 0 0 70 0 70 -51 0 -51 0 7
170 7 170 -118 0 -119 0 -30 -48z m88 -200 l-6 -102 -64 0 c-34 0 -63 3 -63 8
0 4 29 48 65 97 35 50 65 94 65 99 0 5 2 7 5 5 2 -3 2 -51 -2 -107z"/>
<path d="M4786 953 c-4 -76 -11 -208 -16 -293 -6 -85 -10 -170 -10 -187 l0
-33 259 0 258 0 7 52 c3 29 6 64 6 77 l0 24 -160 -8 -160 -7 0 55 c0 67 -1 67
163 67 l117 0 0 70 0 70 -136 0 -136 0 6 31 c3 17 6 42 6 55 l0 24 160 0 160
0 0 70 0 70 -259 0 -259 0 -6 -137z"/>
<path d="M5370 1086 c0 -2 38 -111 84 -242 46 -132 96 -276 111 -322 l28 -82
113 0 114 0 157 313 c87 171 159 318 161 325 3 9 -22 12 -100 12 l-103 -1
-105 -234 c-58 -128 -108 -231 -111 -227 -3 4 -37 109 -75 234 l-69 228 -102
0 c-57 0 -103 -2 -103 -4z"/>
<path d="M6201 828 c-7 -145 -15 -291 -18 -325 l-5 -63 260 0 c295 0 272 -8
272 92 l0 61 -161 -8 -162 -7 5 52 c3 29 12 56 19 61 8 5 69 9 136 9 l121 0 4
70 3 70 -132 0 -133 0 0 55 0 55 159 0 159 0 4 66 c1 36 1 68 -1 70 -2 2 -120
4 -261 4 l-256 0 -13 -262z"/>
<path d="M6861 803 c-7 -158 -15 -305 -18 -325 l-5 -38 100 0 100 0 6 197 c4
109 9 224 12 256 l6 57 74 0 c61 0 78 -4 94 -20 46 -46 7 -113 -73 -125 -25
-4 -50 -4 -56 0 -17 10 -15 2 49 -185 l59 -175 92 -3 c51 -1 98 -1 105 2 10 4
-2 38 -40 123 -74 164 -73 159 -34 179 75 38 110 91 112 169 1 66 -27 112 -85
145 -43 24 -51 25 -265 28 l-220 4 -13 -289z"/>
<path d="M1148 1070 c-116 -20 -183 -108 -157 -204 11 -40 42 -76 162 -184 51
-47 61 -84 28 -102 -28 -15 -100 -12 -160 6 -29 8 -55 13 -58 11 -2 -3 -1 -37
3 -75 l6 -70 86 -12 c195 -28 326 31 339 154 7 58 -17 107 -80 159 -153 128
-164 147 -100 173 29 13 47 14 92 6 31 -6 65 -14 75 -18 17 -6 18 -4 13 17 -4
13 -7 45 -7 72 0 40 -4 49 -22 56 -36 13 -169 20 -220 11z"/>
<path d="M330 991 l0 -68 97 5 96 5 -6 -149 c-4 -82 -10 -193 -13 -247 l-7
-98 99 3 99 3 7 230 c4 127 10 236 13 243 4 11 27 13 99 10 l95 -3 3 68 3 67
-292 0 -293 0 0 -69z"/>
</g>
</svg>
