<?xml version="1.0" encoding="UTF-8"?>
<!DOCTYPE svg PUBLIC "-//W3C//DTD SVG 1.1//EN" "http://www.w3.org/Graphics/SVG/1.1/DTD/svg11.dtd">
<svg xmlns="http://www.w3.org/2000/svg" version="1.1" width="750px" height="137px" style="shape-rendering:geometricPrecision; text-rendering:geometricPrecision; image-rendering:optimizeQuality; fill-rule:evenodd; clip-rule:evenodd" xmlns:xlink="http://www.w3.org/1999/xlink">
<g><path style="opacity:0.954" fill="#000000" d="M -0.5,92.5 C -0.5,89.1667 -0.5,85.8333 -0.5,82.5C 1.16012,64.3567 2.16012,46.0233 2.5,27.5C 9.86348,27.1694 17.1968,27.5027 24.5,28.5C 22.3708,49.7527 21.3708,71.086 21.5,92.5C 14.1667,92.5 6.83333,92.5 -0.5,92.5 Z"/></g>
<g><path style="opacity:0.952" fill="#000000" d="M 154.5,27.5 C 171.513,27.1672 188.513,27.5005 205.5,28.5C 204.557,33.1001 204.223,37.7668 204.5,42.5C 194.833,42.5 185.167,42.5 175.5,42.5C 174.793,45.7861 174.46,49.1194 174.5,52.5C 182.833,52.5 191.167,52.5 199.5,52.5C 198.671,57.453 198.337,62.453 198.5,67.5C 190.167,66.1667 181.833,66.1667 173.5,67.5C 173.5,75.8333 173.5,84.1667 173.5,92.5C 166.167,92.5 158.833,92.5 151.5,92.5C 153.137,70.8673 154.137,49.2006 154.5,27.5 Z"/></g>
<g><path style="opacity:0.954" fill="#000000" d="M 216.5,27.5 C 223.863,27.1694 231.197,27.5027 238.5,28.5C 236.371,49.7527 235.371,71.086 235.5,92.5C 228.167,92.5 220.833,92.5 213.5,92.5C 214.876,70.8524 215.876,49.1857 216.5,27.5 Z"/></g>
<g><path style="opacity:0.947" fill="#000000" d="M 252.5,27.5 C 259.863,27.1694 267.197,27.5027 274.5,28.5C 272.837,44.7678 271.837,61.1012 271.5,77.5C 281.167,77.5 290.833,77.5 300.5,77.5C 300.497,82.5275 300.164,87.5275 299.5,92.5C 282.5,92.5 265.5,92.5 248.5,92.5C 250.783,70.9012 252.116,49.2346 252.5,27.5 Z"/></g>
<g><path style="opacity:0.95" fill="#000000" d="M 311.5,27.5 C 318.833,27.5 326.167,27.5 333.5,27.5C 332.178,49.1516 331.178,70.8183 330.5,92.5C 323.167,92.5 315.833,92.5 308.5,92.5C 310.644,70.9025 311.644,49.2359 311.5,27.5 Z"/></g>
<g><path style="opacity:0.95" fill="#000000" d="M 347.5,27.5 C 361.171,27.3334 374.837,27.5001 388.5,28C 398.563,32.6267 402.396,40.46 400,51.5C 396.515,63.2636 388.515,68.9303 376,68.5C 373.906,68.4644 371.906,68.1311 370,67.5C 369.06,63.2384 367.894,59.0717 366.5,55C 370.287,54.8404 373.954,54.1737 377.5,53C 381.5,49.3333 381.5,45.6667 377.5,42C 373.789,41.1747 370.122,41.3414 366.5,42.5C 365.271,59.1143 364.605,75.7809 364.5,92.5C 357.833,92.5 351.167,92.5 344.5,92.5C 346.135,70.8679 347.135,49.2012 347.5,27.5 Z"/></g>
<g><path style="opacity:0.95" fill="#000000" d="M 431.5,27.5 C 439.833,27.5 448.167,27.5 456.5,27.5C 455.638,38.8185 454.971,50.1518 454.5,61.5C 457.833,61.5 461.167,61.5 464.5,61.5C 464.827,66.544 464.494,71.544 463.5,76.5C 460.023,74.8392 456.856,75.1725 454,77.5C 453.501,82.4889 453.334,87.4889 453.5,92.5C 446.833,92.5 440.167,92.5 433.5,92.5C 433.532,86.8114 433.866,81.1448 434.5,75.5C 425.491,75.6256 416.491,75.959 407.5,76.5C 407.909,70.4985 408.409,64.4985 409,58.5C 416.999,48.4913 424.499,38.1579 431.5,27.5 Z M 436.5,44.5 C 437.489,49.9753 437.822,55.642 437.5,61.5C 433.445,61.8242 429.445,61.4909 425.5,60.5C 429.192,55.1487 432.859,49.8154 436.5,44.5 Z"/></g>
<g><path style="opacity:0.945" fill="#000000" d="M 477.5,27.5 C 495.5,27.5 513.5,27.5 531.5,27.5C 530.671,32.453 530.337,37.453 530.5,42.5C 519.82,41.3407 509.153,41.3407 498.5,42.5C 498.5,45.8333 498.5,49.1667 498.5,52.5C 507.528,52.6805 516.528,52.3471 525.5,51.5C 524.658,56.787 524.324,62.1203 524.5,67.5C 515.5,67.5 506.5,67.5 497.5,67.5C 496.949,70.8067 496.616,74.1401 496.5,77.5C 507.167,77.5 517.833,77.5 528.5,77.5C 528.803,82.43 528.469,87.2633 527.5,92C 509.836,92.4999 492.17,92.6666 474.5,92.5C 476.712,70.897 477.712,49.2303 477.5,27.5 Z"/></g>
<g><path style="opacity:0.943" fill="#000000" d="M 535.5,28.5 C 542.677,27.1806 550.01,27.1806 557.5,28.5C 562.436,43.4745 567.269,58.4745 572,73.5C 578.861,58.5833 585.528,43.5833 592,28.5C 599.442,27.187 606.942,27.187 614.5,28.5C 603.578,49.3441 592.911,70.3441 582.5,91.5C 574.275,92.8146 566.108,92.8146 558,91.5C 550.962,70.2119 543.462,49.2119 535.5,28.5 Z"/></g>
<g><path style="opacity:0.948" fill="#000000" d="M 620.5,27.5 C 638.167,27.5 655.833,27.5 673.5,27.5C 673.084,32.4932 672.751,37.4932 672.5,42.5C 661.822,41.2988 651.155,41.2988 640.5,42.5C 640.5,45.8333 640.5,49.1667 640.5,52.5C 649.528,52.6805 658.528,52.3471 667.5,51.5C 666.902,56.813 666.569,62.1463 666.5,67.5C 657.5,67.5 648.5,67.5 639.5,67.5C 639.784,70.7766 639.451,73.9433 638.5,77C 649.515,77.1676 660.515,77.6676 671.5,78.5C 670.557,83.1001 670.223,87.7668 670.5,92.5C 652.488,92.8329 634.488,92.4995 616.5,91.5C 618.719,70.2471 620.053,48.9138 620.5,27.5 Z"/></g>
<g><path style="opacity:0.946" fill="#000000" d="M 686.5,27.5 C 700.837,27.3334 715.171,27.5001 729.5,28C 742.434,31.3599 746.934,39.5265 743,52.5C 740.366,58.4639 735.866,62.2973 729.5,64C 733.924,73.3442 737.924,82.8442 741.5,92.5C 734.167,92.5 726.833,92.5 719.5,92.5C 716.108,80.3246 712.108,68.3246 707.5,56.5C 711.907,55.8754 716.241,55.042 720.5,54C 726.139,49.4297 725.805,45.4297 719.5,42C 714.845,41.5008 710.179,41.3342 705.5,41.5C 704.919,58.5058 704.253,75.5058 703.5,92.5C 696.833,92.5 690.167,92.5 683.5,92.5C 684.854,70.85 685.854,49.1834 686.5,27.5 Z"/></g>
<g><path style="opacity:0.935" fill="#000000" d="M 115.5,28.5 C 122.938,28.2214 130.272,28.8881 137.5,30.5C 138.991,35.7567 139.491,41.09 139,46.5C 133.472,43.7535 127.639,42.9201 121.5,44C 119.884,44.6152 118.551,45.6152 117.5,47C 121.823,52.9873 127.157,57.9873 133.5,62C 141.138,70.3609 141.471,79.0276 134.5,88C 128.311,92.0896 121.478,93.9229 114,93.5C 108.086,93.4303 102.252,92.7636 96.5,91.5C 96.03,86.4631 95.3633,81.4631 94.5,76.5C 95,76.1667 95.5,75.8333 96,75.5C 102.906,79.0858 110.073,79.9191 117.5,78C 119.978,76.062 120.145,73.8953 118,71.5C 112.333,66.5 106.667,61.5 101,56.5C 94.4506,41.2654 99.2839,31.932 115.5,28.5 Z"/></g>
<g><path style="opacity:0.936" fill="#000000" d="M 32.5,29.5 C 52.1667,29.5 71.8333,29.5 91.5,29.5C 91.0843,34.4932 90.7509,39.4932 90.5,44.5C 84.171,44.1005 77.8376,43.7671 71.5,43.5C 70.1414,59.797 69.4748,76.1304 69.5,92.5C 62.5,92.5 55.5,92.5 48.5,92.5C 50.0244,76.2048 51.0244,59.8715 51.5,43.5C 44.8689,44.331 38.2022,44.6643 31.5,44.5C 32.254,39.5365 32.5874,34.5365 32.5,29.5 Z"/></g>
</svg>
