<?xml version="1.0" standalone="no"?>
<!DOCTYPE svg PUBLIC "-//W3C//DTD SVG 20010904//EN"
 "http://www.w3.org/TR/2001/REC-SVG-20010904/DTD/svg10.dtd">
<svg version="1.0" xmlns="http://www.w3.org/2000/svg"
 width="532.000000pt" height="344.000000pt" viewBox="0 0 532.000000 344.000000"
 preserveAspectRatio="xMidYMid meet">

<g transform="translate(0.000000,344.000000) scale(0.100000,-0.100000)"
fill="#000000" stroke="none">
<path d="M1660 3342 c0 -2 62 -68 138 -148 l137 -144 718 0 719 0 146 141 c81
77 148 144 150 147 1 4 -450 7 -1003 7 -553 0 -1005 -1 -1005 -3z"/>
<path d="M1660 3298 c0 -4 16 -52 37 -108 30 -84 34 -104 22 -111 -8 -4 -23
-15 -34 -24 -19 -16 -19 -16 13 -12 40 5 41 -7 2 -23 -43 -18 -50 -34 -11 -28
42 6 39 -6 -7 -24 l-38 -15 -35 -134 -34 -134 145 71 c205 101 183 101 216 -3
16 -48 32 -92 36 -97 4 -6 8 46 8 115 0 69 -2 128 -4 130 -3 3 -53 1 -112 -3
-60 -5 -112 -7 -116 -6 -5 2 30 32 77 68 l85 64 -24 26 c-12 14 -62 70 -111
125 -113 128 -115 130 -115 123z"/>
<path d="M2860 2771 c-134 -142 -252 -275 -262 -295 -11 -21 -23 -33 -31 -30
-8 3 -18 -1 -24 -8 -8 -10 -53 -191 -53 -213 0 -3 83 -5 185 -5 102 0 185 -2
185 -4 0 -5 -27 -139 -35 -174 l-6 -23 118 3 118 3 20 98 19 97 61 0 62 0 21
98 c12 53 22 100 22 105 0 4 -27 7 -61 7 -58 0 -61 1 -56 23 3 12 31 139 62
282 31 143 58 268 61 278 5 15 -3 17 -78 17 l-84 0 -244 -259z m124 -113 c-4
-13 -17 -68 -29 -123 l-21 -100 -83 -3 -82 -3 107 126 c60 69 110 125 112 125
2 0 0 -10 -4 -22z"/>
<path d="M2009 2478 c0 -238 -3 -470 -5 -515 -3 -46 -3 -83 0 -83 3 0 27 23
53 52 26 29 108 115 181 191 l132 139 0 104 0 104 94 0 94 0 132 145 131 145
-225 0 -226 0 0 75 0 75 -180 0 -180 0 -1 -432z"/>
<path d="M2350 2082 c0 -4 -76 -88 -170 -187 -119 -127 -164 -181 -153 -184
10 -2 29 11 45 30 l29 34 -31 -52 c-18 -31 -39 -53 -48 -53 -34 0 -63 13 -58
25 2 7 7 34 11 61 l7 49 -52 -87 c-43 -73 -49 -90 -40 -108 12 -23 35 -28 26
-5 -7 19 -3 19 44 -5 l39 -20 29 25 c37 31 40 31 72 0 25 -24 30 -25 76 -15
42 10 60 8 126 -11 l77 -22 38 26 c79 56 73 43 61 150 -6 53 -14 97 -18 97 -4
0 -11 -20 -14 -45 -6 -35 -15 -51 -40 -70 -31 -23 -40 -25 -149 -25 -65 0
-117 2 -117 4 0 2 -7 20 -15 40 -18 44 -12 48 10 6 l16 -30 109 0 110 0 0 190
c0 120 -4 190 -10 190 -5 0 -10 -3 -10 -8z"/>
<path d="M2565 1918 c-2 -7 -13 -62 -25 -123 -12 -60 -23 -117 -26 -126 -4
-13 9 -17 83 -22 94 -7 113 0 113 39 0 23 -3 24 -60 24 -41 0 -60 4 -60 13 0
26 17 36 65 39 46 3 50 5 53 31 3 26 2 27 -48 27 -43 0 -51 3 -46 16 3 9 6 20
6 25 0 5 25 9 56 9 42 0 60 4 70 18 12 16 13 15 14 -6 0 -13 7 -70 16 -128 16
-104 17 -104 45 -104 26 0 34 11 103 134 42 73 76 136 76 140 0 3 -15 6 -33 6
-31 0 -35 -4 -82 -97 -47 -93 -50 -96 -52 -63 -2 19 -6 63 -9 98 l-6 62 -124
0 c-91 0 -126 -3 -129 -12z"/>
<path d="M3019 1928 c-17 -58 -64 -280 -60 -282 3 -2 47 -2 98 1 87 5 91 7 96
30 6 30 -8 36 -68 31 -37 -2 -45 0 -45 14 0 36 10 44 50 40 44 -5 70 10 70 39
0 16 -8 19 -50 19 -50 0 -55 4 -44 34 5 12 20 16 64 16 51 0 58 2 64 23 3 12
6 25 6 30 0 6 -179 11 -181 5z"/>
<path d="M3193 1790 l-30 -140 33 0 c29 0 32 3 43 46 15 57 39 56 60 -1 8 -22
15 -41 15 -42 3 -6 76 -11 76 -5 0 4 -7 28 -17 54 l-16 46 26 32 c35 41 37 97
4 128 -19 18 -35 22 -93 22 l-71 0 -30 -140z m153 66 c11 -29 -15 -56 -52 -56
-29 0 -35 3 -30 16 3 9 6 24 6 35 0 15 7 19 35 19 22 0 38 -6 41 -14z"/>
</g>
</svg>
